<svg xmlns="http://www.w3.org/2000/svg" width="24.401" height="24.401" viewBox="0 0 24.401 24.401">
  <path id="instagram_icn" d="M917.376,271.47a7.186,7.186,0,0,1-5.156,1.925H902.183a7.187,7.187,0,0,1-5.158-1.925A6.9,6.9,0,0,1,895,266.241V256.15a6.8,6.8,0,0,1,7.183-7.156h10.128a7.1,7.1,0,0,1,5.156,2.018,6.981,6.981,0,0,1,1.934,5.138v10.091A7.262,7.262,0,0,1,917.376,271.47ZM916.351,256.6a4.758,4.758,0,0,0-1.18-3.288,4.516,4.516,0,0,0-3.373-1.266H902.52a4.1,4.1,0,0,0-4.47,4.47v9.277a4.648,4.648,0,0,0,1.266,3.373,4.751,4.751,0,0,0,3.288,1.18H911.8a4.6,4.6,0,0,0,3.288-1.18,4.317,4.317,0,0,0,1.266-3.29Zm-3.05.021a1.524,1.524,0,1,1,1.525-1.525A1.5,1.5,0,0,1,913.3,256.619Zm-6.144,10.675a6.1,6.1,0,0,1,0-12.2,6.1,6.1,0,1,1,0,12.2Zm.044-9.149a3.05,3.05,0,1,0,3.05,3.049A3.051,3.051,0,0,0,907.2,258.146Z" transform="translate(-895 -248.994)" fill="#fff" fill-rule="evenodd"/>
</svg>
