<svg xmlns="http://www.w3.org/2000/svg" width="26.122" height="26.107" viewBox="0 0 26.122 26.107">
  <g id="_33447" data-name="33447" transform="translate(0.791 0.5)">
    <path id="WhatsApp" d="M24.831,12.1A12.21,12.21,0,0,1,6.749,22.686L0,24.831l2.2-6.49A11.968,11.968,0,0,1,.451,12.1a12.19,12.19,0,0,1,24.38,0ZM12.641,1.926A10.22,10.22,0,0,0,2.393,12.1a10.062,10.062,0,0,0,1.952,5.962l-1.28,3.777L7,20.583A10.259,10.259,0,0,0,22.89,12.1,10.221,10.221,0,0,0,12.641,1.926ZM18.8,14.881c-.075-.123-.274-.2-.573-.346s-1.768-.866-2.042-.964-.474-.148-.673.148-.772.964-.946,1.162-.348.223-.648.075a8.179,8.179,0,0,1-2.4-1.471,8.939,8.939,0,0,1-1.662-2.053c-.174-.3-.018-.457.131-.6s.3-.346.448-.519a1.987,1.987,0,0,0,.3-.495.54.54,0,0,0-.025-.52c-.074-.148-.673-1.607-.921-2.2S9.285,6.6,9.11,6.6s-.374-.025-.573-.025a1.1,1.1,0,0,0-.8.371A3.315,3.315,0,0,0,6.7,9.417a5.737,5.737,0,0,0,1.22,3.066,12.214,12.214,0,0,0,5.1,4.476c3.038,1.187,3.038.791,3.586.741a3.022,3.022,0,0,0,2.017-1.409A2.472,2.472,0,0,0,18.8,14.881Z" fill="#fff" stroke="#fff" stroke-width="1"/>
  </g>
</svg>
