<svg xmlns="http://www.w3.org/2000/svg" width="44.253" height="52.494" viewBox="0 0 44.253 52.494">
  <path id="ico-desk-prodotti-41" d="M65.285,29.1V25.058a4.432,4.432,0,0,0-4.427-4.427H26.606a4.449,4.449,0,0,0-4.445,4.445V29.1a4.438,4.438,0,0,0,3.075,4.191,11.439,11.439,0,0,0-4.2,8.8V60.234a12.965,12.965,0,0,0,12.9,12.891H52.394a12.965,12.965,0,0,0,12.89-12.9V42.093a11.625,11.625,0,0,0-3.643-8.645A4.427,4.427,0,0,0,65.285,29.1Zm-12.9,40.526H33.934a9.454,9.454,0,0,1-9.4-9.4V42.093c0-5.119,4.859-8.557,9.4-8.557H52.389c4.478,0,7.942,2.438,9.031,6.063H46.432a3.715,3.715,0,0,0-3.685,3.692V60.8A3.678,3.678,0,0,0,46.4,64.446H60.756A9.444,9.444,0,0,1,52.387,69.626Zm9.4-26.22V58.92l-.156,2.026H46.412a.165.165,0,0,1-.166-.157V43.3a.2.2,0,0,1,.192-.2H61.48A.306.306,0,0,1,61.785,43.405Zm0-14.305a.928.928,0,0,1-.927.927H26.606a.945.945,0,0,1-.945-.937V25.076a.946.946,0,0,1,.945-.945H60.858a.928.928,0,0,1,.927.927V29.1Z" transform="translate(-21.032 -20.631)" fill="#5d792a"/>
</svg>
