<svg id="ico-desk-magazine" xmlns="http://www.w3.org/2000/svg" width="70.67" height="49.885" viewBox="0 0 70.67 49.885">
  <path id="Path_84" data-name="Path 84" d="M16.881,31.527a1.617,1.617,0,0,0,.6,3.118,1.594,1.594,0,0,0,.6-.118,24.424,24.424,0,0,1,18.031-.052,1.617,1.617,0,1,0,1.19-3.007A27.7,27.7,0,0,0,16.881,31.527Z" transform="translate(-8.686 -16.889)" fill="#5d792a"/>
  <path id="Path_85" data-name="Path 85" d="M37.309,39.838a27.69,27.69,0,0,0-20.428.059,1.617,1.617,0,0,0,.6,3.118,1.6,1.6,0,0,0,.6-.118,24.436,24.436,0,0,1,18.031-.052,1.617,1.617,0,1,0,1.19-3.007Z" transform="translate(-8.686 -15.495)" fill="#5d792a"/>
  <path id="Path_86" data-name="Path 86" d="M66.319,31.469a27.69,27.69,0,0,0-20.428.059,1.617,1.617,0,0,0,.6,3.118,1.594,1.594,0,0,0,.6-.118,24.436,24.436,0,0,1,18.031-.052,1.617,1.617,0,1,0,1.19-3.007Z" transform="translate(-3.854 -16.889)" fill="#5d792a"/>
  <path id="Path_87" data-name="Path 87" d="M66.319,39.838a27.684,27.684,0,0,0-20.428.059,1.617,1.617,0,0,0,.6,3.118,1.594,1.594,0,0,0,.6-.118,24.441,24.441,0,0,1,18.031-.052,1.617,1.617,0,1,0,1.19-3.007Z" transform="translate(-3.854 -15.495)" fill="#5d792a"/>
  <path id="Path_88" data-name="Path 88" d="M78.255,22.663C72.949,20.573,67.721,18.7,62.089,18.7,56.305,18.7,50.8,20.7,45.658,22.76a3.463,3.463,0,0,0-.516.265,3.167,3.167,0,0,0-.546-.29c-5.4-2.128-10.7-4.039-16.348-4.039-5.806,0-11.17,1.957-16.61,4.137a3.054,3.054,0,0,0-1.927,2.852V65.509a3.066,3.066,0,0,0,4.074,2.9,43.928,43.928,0,0,1,28.695-.08,3.057,3.057,0,0,0,2.694-.359,3.326,3.326,0,0,0,2.818.315,43.931,43.931,0,0,1,27.969-.077,3.354,3.354,0,0,0,4.421-3.181V25.79A3.343,3.343,0,0,0,78.255,22.663ZM43.3,65.194a47.181,47.181,0,0,0-30.36.084V25.793c5.1-2.04,10.11-3.862,15.3-3.862,5.042,0,10,1.778,15.057,3.77V65.194Zm33.841-.168-.16.114a47.174,47.174,0,0,0-30.04.082l.523,1.531-.682-1.644V25.881a.124.124,0,0,1,.075-.118c5.05-2.018,10.015-3.831,15.228-3.831,5.065,0,9.976,1.77,14.981,3.741a.123.123,0,0,1,.076.117V65.026Z" transform="translate(-9.711 -18.696)" fill="#5d792a"/>
</svg>
