<svg xmlns="http://www.w3.org/2000/svg" width="45.657" height="48.159" viewBox="0 0 45.657 48.159">
  <path id="ico-desk-eventi" d="M62.644,23.552h-4.18a.948.948,0,0,0,.051-.423c-.388-3.112-2-5.2-4-5.2-2.171,0-3.776,2.356-4.02,5.7a.938.938,0,0,0-.357-.072H37.2a.932.932,0,0,0,.05-.42c-.386-3.164-1.957-5.207-4-5.207-2.171,0-3.777,2.356-4.021,5.7a.927.927,0,0,0-.356-.072h-5A3.449,3.449,0,0,0,20.43,27V62.64a3.449,3.449,0,0,0,3.445,3.445H62.642a3.449,3.449,0,0,0,3.445-3.445V27A3.447,3.447,0,0,0,62.644,23.552ZM23.568,36.071H62.95V62.64a.312.312,0,0,1-.308.308H23.875a.312.312,0,0,1-.308-.308V36.071ZM53.889,23.552a.913.913,0,0,0-.253.051,4.51,4.51,0,0,1,.884-2.494A4.468,4.468,0,0,1,55.4,23.4a.871.871,0,0,0,.055.152Zm-21.26,0a.93.93,0,0,0-.254.051,4.5,4.5,0,0,1,.885-2.494,4.473,4.473,0,0,1,.877,2.291.973.973,0,0,0,.054.152Zm-3.244,3.014c.532,2.57,2.141,4.5,3.871,4.5a.944.944,0,0,0,.944-.944V28.874a.944.944,0,0,0-.838-.938,2.829,2.829,0,0,1-.741-1.27.875.875,0,0,0,.134.024H50.2a.939.939,0,0,0,.444-.124c.531,2.571,2.138,4.5,3.869,4.5a.944.944,0,0,0,.944-.944V28.874a.944.944,0,0,0-.838-.938,2.807,2.807,0,0,1-.741-1.272.878.878,0,0,0,.134.026h8.629A.312.312,0,0,1,62.95,27v5.935H23.568V27a.312.312,0,0,1,.308-.308h5.065A.938.938,0,0,0,29.384,26.567Z" transform="translate(-20.43 -17.925)" fill="#5d7a2a"/>
</svg>
