<svg id="ico-trattore" xmlns="http://www.w3.org/2000/svg" width="69.443" height="56.798" viewBox="0 0 69.443 56.798">
  <g id="Group_189" data-name="Group 189" transform="translate(50.979 6.862)">
    <rect id="Rectangle_9" data-name="Rectangle 9" width="3.411" height="14.939" fill="#5b792b"/>
  </g>
  <g id="Group_190" data-name="Group 190" transform="translate(9.745)">
    <path id="Path_89" data-name="Path 89" d="M72.636,58.927l-.016-1.868-.722-.114,2.44-15.415L47.38,41.488,44.447,21.4H24.992L22.01,42.222l-3.377-.483,3.4-23.754H47.4l2.933,20.1,28,.044L75.04,58.906Z" transform="translate(-18.633 -17.985)" fill="#5b792b"/>
  </g>
  <g id="Group_191" data-name="Group 191" transform="translate(34.162 37.581)">
    <rect id="Rectangle_10" data-name="Rectangle 10" width="19.409" height="3.412" transform="translate(0 0.105) rotate(-0.309)" fill="#5b792b"/>
  </g>
  <g id="Group_192" data-name="Group 192" transform="translate(0 20.916)">
    <path id="Path_90" data-name="Path 90" d="M28.219,71.8a17.941,17.941,0,1,1,17.94-17.941A17.962,17.962,0,0,1,28.219,71.8Zm0-32.47A14.529,14.529,0,1,0,42.749,53.855,14.545,14.545,0,0,0,28.219,39.327Zm0,24.967A10.439,10.439,0,1,1,38.659,53.854,10.451,10.451,0,0,1,28.219,64.295Zm0-17.467a7.028,7.028,0,1,0,7.028,7.027A7.035,7.035,0,0,0,28.219,46.828Z" transform="translate(-10.279 -35.915)" fill="#5b792b"/>
  </g>
  <g id="Group_193" data-name="Group 193" transform="translate(48.143 35.989)">
    <path id="Path_91" data-name="Path 91" d="M62.1,69.534a10.351,10.351,0,1,1,10.55-10.348A10.464,10.464,0,0,1,62.1,69.534Zm0-17.287a6.94,6.94,0,1,0,7.139,6.937A7.048,7.048,0,0,0,62.1,52.247Z" transform="translate(-51.549 -48.836)" fill="#5b792b"/>
  </g>
  <g id="Group_194" data-name="Group 194" transform="translate(21.499 5.617)">
    <path id="Path_92" data-name="Path 92" d="M40.518,38.3H31.043a2.335,2.335,0,0,1-2.334-2.331V25.131A2.334,2.334,0,0,1,31.043,22.8h7.416c2.367,0,2.955,1,3.007,1.889l1.386,11.278A2.336,2.336,0,0,1,40.518,38.3Zm-8.4-3.411h7.172l-1.077-8.676h-6.1v8.676Z" transform="translate(-28.709 -22.8)" fill="#5b792b"/>
  </g>
  <g id="Group_195" data-name="Group 195" transform="translate(55.737 43.381)">
    <path id="Path_93" data-name="Path 93" d="M63.972,58.129a2.957,2.957,0,1,1-2.956-2.956,2.955,2.955,0,0,1,2.956,2.956" transform="translate(-58.059 -55.173)" fill="#fff"/>
  </g>
  <g id="Group_196" data-name="Group 196" transform="translate(54.299 41.943)">
    <path id="Path_94" data-name="Path 94" d="M61.222,62.73a4.395,4.395,0,1,1,4.4-4.394A4.4,4.4,0,0,1,61.222,62.73Zm0-5.913a1.517,1.517,0,1,0,1.518,1.518A1.519,1.519,0,0,0,61.222,56.817Z" transform="translate(-56.826 -53.94)" fill="#5b792b"/>
  </g>
</svg>
