<svg xmlns="http://www.w3.org/2000/svg" width="47.127" height="52.885" viewBox="0 0 47.127 52.885">
  <g id="Group_310" data-name="Group 310" transform="translate(-1384.106 -949.01)">
    <path id="Path_82" data-name="Path 82" d="M44.4,38.238c2.748-2.748,10.067-4.006,14.407-4.525a2.735,2.735,0,0,1,3.041,3.042c-.519,4.34-1.777,11.658-4.525,14.407-4.014,4.014-10.161,4.375-13.729.806S40.388,42.251,44.4,38.238Z" transform="translate(1367.859 934.968)" fill="none" stroke="#5d792a" stroke-linecap="round" stroke-linejoin="round" stroke-miterlimit="10" stroke-width="3"/>
    <path id="Path_83" data-name="Path 83" d="M38.559,22.238c-2.748-2.748-10.067-4.006-14.407-4.525a2.736,2.736,0,0,0-3.042,3.042c.519,4.34,1.777,11.658,4.525,14.407,4.014,4.014,10.161,4.375,13.729.806S42.572,26.251,38.559,22.238Z" transform="translate(1364.52 938.529)" fill="none" stroke="#5d792a" stroke-linecap="round" stroke-linejoin="round" stroke-miterlimit="10" stroke-width="3"/>
    <line id="Line_1" data-name="Line 1" y2="49.885" transform="translate(1407.477 950.51)" fill="none" stroke="#5d792a" stroke-linecap="round" stroke-linejoin="round" stroke-miterlimit="10" stroke-width="3"/>
    <line id="Line_2" data-name="Line 2" x1="8.223" y1="8.224" transform="translate(1395.661 963.221)" fill="none" stroke="#5d792a" stroke-linecap="round" stroke-linejoin="round" stroke-miterlimit="10" stroke-width="3"/>
    <line id="Line_3" data-name="Line 3" y1="8.223" x2="8.223" transform="translate(1411.14 978.109)" fill="none" stroke="#5d792a" stroke-linecap="round" stroke-linejoin="round" stroke-miterlimit="10" stroke-width="3"/>
  </g>
</svg>
