<svg id="Group_174" data-name="Group 174" xmlns="http://www.w3.org/2000/svg" width="17.049" height="15.406" viewBox="0 0 17.049 15.406">
  <path id="Path_75" data-name="Path 75" d="M158.012,62a5.018,5.018,0,0,0-3.487,1.4A5.039,5.039,0,0,0,146,67.037c0,6,7.674,9.94,8,10.1l.523.264.523-.264c.327-.165,8-4.1,8-10.1A5.043,5.043,0,0,0,158.012,62Zm-3.489,12.776a19.532,19.532,0,0,1-2.918-2.076c-1.5-1.3-3.281-3.336-3.281-5.663a2.712,2.712,0,0,1,5.126-1.237l.324.631h1.5l.324-.631a2.712,2.712,0,0,1,5.126,1.237C160.724,70.843,156.1,73.856,154.523,74.776Z" transform="translate(-146 -62)" fill="#4e5b31"/>
</svg>
