<svg xmlns="http://www.w3.org/2000/svg" width="14.976" height="14.976" viewBox="0 0 14.976 14.976">
  <path id="instagram_icn" d="M908.733,262.789a4.41,4.41,0,0,1-3.165,1.181h-6.16a4.411,4.411,0,0,1-3.166-1.181A4.238,4.238,0,0,1,895,259.58v-6.194a4.175,4.175,0,0,1,4.409-4.392h6.216a4.356,4.356,0,0,1,3.165,1.238,4.285,4.285,0,0,1,1.187,3.153v6.194A4.458,4.458,0,0,1,908.733,262.789Zm-.629-9.128a2.92,2.92,0,0,0-.724-2.018,2.772,2.772,0,0,0-2.07-.777h-5.694a2.513,2.513,0,0,0-2.744,2.743V259.3a2.853,2.853,0,0,0,.777,2.07,2.916,2.916,0,0,0,2.018.724h5.642a2.824,2.824,0,0,0,2.018-.724,2.649,2.649,0,0,0,.777-2.019Zm-1.872.013a.936.936,0,1,1,.936-.936A.923.923,0,0,1,906.232,253.674Zm-3.771,6.552a3.744,3.744,0,0,1,0-7.488,3.744,3.744,0,1,1,0,7.488Zm.027-5.615a1.872,1.872,0,1,0,1.872,1.871A1.873,1.873,0,0,0,902.488,254.611Z" transform="translate(-895 -248.994)" fill="#4e5b31" fill-rule="evenodd"/>
</svg>
