<svg id="shopping-cart" xmlns="http://www.w3.org/2000/svg" width="29.647" height="29.647" viewBox="0 0 29.647 29.647">
  <g id="Group_19" data-name="Group 19">
    <path id="Path_12" data-name="Path 12" d="M29.388,6.739a1.158,1.158,0,0,0-.9-.428H7.512l-.086-.789,0-.025A6.336,6.336,0,0,0,1.158,0a1.158,1.158,0,0,0,0,2.316,4.014,4.014,0,0,1,3.967,3.47L6.5,18.433A3.479,3.479,0,0,0,4.459,21.6c0,.01,0,.019,0,.029s0,.019,0,.029a3.478,3.478,0,0,0,3.474,3.474H8.4a3.416,3.416,0,1,0,6.469,0h5A3.417,3.417,0,1,0,23.1,22.814H7.933a1.159,1.159,0,0,1-1.158-1.158c0-.01,0-.019,0-.029s0-.019,0-.029A1.159,1.159,0,0,1,7.933,20.44H22.718a5.3,5.3,0,0,0,4.806-3.24,1.158,1.158,0,0,0-2.121-.931,3.028,3.028,0,0,1-2.686,1.855H8.8l-1.034-9.5h19.3L26.5,11.344a1.158,1.158,0,1,0,2.267.473l.858-4.111A1.158,1.158,0,0,0,29.388,6.739ZM23.1,25.131a1.1,1.1,0,1,1-1.1,1.1A1.1,1.1,0,0,1,23.1,25.131Zm-11.465,0a1.1,1.1,0,1,1-1.1,1.1A1.1,1.1,0,0,1,11.639,25.131Z" fill="#6e7852"/>
  </g>
</svg>
