<svg xmlns="http://www.w3.org/2000/svg" width="18.186" height="17.442" viewBox="0 0 18.186 17.442">
  <g id="Group_176" data-name="Group 176" transform="translate(0.2 0.2)">
    <path id="Path_76" data-name="Path 76" d="M11.435,20.641v-.31a3.227,3.227,0,0,0,.252-.229,4.6,4.6,0,0,0,1.165-2.565,2.262,2.262,0,0,0,1.461-.868,3.242,3.242,0,0,0,.125-2.928.337.337,0,0,0-.135-.175l-.185-.125a4.564,4.564,0,0,0-1.091-3.073A5.294,5.294,0,0,0,8.891,8.826a5.316,5.316,0,0,0-4.137,1.528,4.564,4.564,0,0,0-1.091,3.073l-.185.125a.337.337,0,0,0-.135.175,3.24,3.24,0,0,0,.125,2.928,2.269,2.269,0,0,0,1.461.879A4.6,4.6,0,0,0,6.1,20.1a3.284,3.284,0,0,0,.252.229v.31C5.06,20.89-.087,22.1,0,25.532a.337.337,0,0,0,.337.337h17.11a.337.337,0,0,0,.337-.337C17.871,22.1,12.725,20.89,11.435,20.641ZM4.727,16.783a1.461,1.461,0,0,1-.714-.522l.017,0a2.587,2.587,0,0,1-.067-2.218l.246-.165a.337.337,0,0,0,.148-.313,3.979,3.979,0,0,1,.916-2.77A4.64,4.64,0,0,1,8.891,9.5a4.643,4.643,0,0,1,3.632,1.3,3.979,3.979,0,0,1,.916,2.77.337.337,0,0,0,.148.313l.246.165a2.552,2.552,0,0,1-.067,2.218,1.468,1.468,0,0,1-.717.522A2.242,2.242,0,0,0,13.6,15.1a1.575,1.575,0,0,0-.542-.943c-.145-3.366-2.5-3.743-3.521-3.743a4.243,4.243,0,0,0-.643.047,4.237,4.237,0,0,0-.643-.047c-1.01,0-3.366.37-3.521,3.743a1.575,1.575,0,0,0-.549.939A2.238,2.238,0,0,0,4.727,16.783Zm7.658-2.76a6.934,6.934,0,0,1-4.022-1.01.337.337,0,0,0-.438.044,3.925,3.925,0,0,1-2.494.929c.182-2.38,1.622-2.9,2.834-2.9a3.254,3.254,0,0,1,.576.047.336.336,0,0,0,.135,0,3.27,3.27,0,0,1,.576-.047c1.2,0,2.649.532,2.817,2.932ZM5.548,16.847l.013,0a.336.336,0,0,0-.084-.226,1.9,1.9,0,0,1-.616-1.407.892.892,0,0,1,.306-.569A5.038,5.038,0,0,0,8.2,13.693a7.59,7.59,0,0,0,3.736,1.01,4.439,4.439,0,0,0,.693-.037.889.889,0,0,1,.3.552,1.907,1.907,0,0,1-.616,1.407.336.336,0,0,0-.084.226v.175l-1.959,1.05a.969.969,0,1,0,.3.7q0-.045,0-.091l1.545-.828a3.7,3.7,0,0,1-.9,1.777,3,3,0,0,1-2.232.835H8.817a3.006,3.006,0,0,1-2.228-.831A4.291,4.291,0,0,1,5.548,16.847ZM9.9,18.78a.3.3,0,1,1-.3-.3A.3.3,0,0,1,9.9,18.78Zm-1.346,6.4H.684C.95,22.647,5.06,21.59,6.346,21.318v.6c0,.764.929,1.346,2.208,1.444ZM7.019,21.92V20.759a4.07,4.07,0,0,0,1.787.377h.168a4.07,4.07,0,0,0,1.787-.377V21.92c0,.32-.73.781-1.872.781S7.019,22.24,7.019,21.92Zm2.208,3.265V23.361c1.279-.088,2.208-.673,2.208-1.444v-.589c1.3.269,5.386,1.326,5.662,3.858H9.227Z" transform="translate(0 -8.826)" fill="#4e5b31" stroke="#4e5b31" stroke-width="0.4"/>
  </g>
</svg>
